<svg xmlns="http://www.w3.org/2000/svg" width="1080" height="1080" viewBox="0 0 1080 1080" fill="none">
<rect width="1080" height="1080" class="fill-white dark:fill-[#0a0a0a]"/>
<path d="M873.082 551.383V458.85C873.082 457.858 873.887 457.087 874.878 457.087H900.016C901.007 457.087 901.812 457.86 901.812 458.852V551.383C901.812 561.73 913.463 557.957 918.868 555.65C920.112 555.119 921.563 556.021 921.563 557.374V575.257C921.563 576.019 921.084 576.696 920.355 576.919C912.862 579.217 873.082 589.617 873.082 551.383Z" fill="#193CB8" stroke="#193CB8"/>
<path d="M147.666 581.073C137.421 581.073 128.579 579.053 121.14 575.014C113.744 570.932 108.047 565.127 104.051 557.601C100.098 550.032 98.1213 541.039 98.1213 530.621C98.1213 520.501 100.119 511.656 104.115 504.087C108.111 496.476 113.744 490.566 121.013 486.356C128.282 482.104 136.847 479.978 146.71 479.978C153.681 479.978 160.057 481.062 165.839 483.231C171.62 485.399 176.615 488.61 180.823 492.862C185.032 497.114 188.305 502.365 190.643 508.616C192.981 514.824 194.15 521.947 194.15 529.983V537.765H109.025V519.65H165.137C165.095 516.334 164.308 513.378 162.778 510.785C161.248 508.191 159.143 506.171 156.465 504.725C153.83 503.237 150.79 502.493 147.347 502.493C143.861 502.493 140.737 503.28 137.974 504.853C135.211 506.384 133.021 508.488 131.406 511.167C129.791 513.804 128.941 516.801 128.856 520.161V538.594C128.856 542.591 129.642 546.099 131.215 549.118C132.788 552.094 135.019 554.412 137.91 556.07C140.801 557.729 144.244 558.558 148.24 558.558C151.003 558.558 153.511 558.175 155.764 557.41C158.017 556.644 159.951 555.517 161.566 554.029C163.182 552.541 164.393 550.712 165.201 548.544L193.831 549.373C192.641 555.794 190.026 561.386 185.988 566.148C181.992 570.868 176.742 574.546 170.238 577.182C163.734 579.776 156.21 581.073 147.666 581.073ZM302.452 481.253L268.849 579.223H233.141L199.602 481.253H232.44L250.485 548.735H251.505L269.614 481.253H302.452ZM356.97 581.073C346.683 581.073 337.842 578.968 330.446 574.759C323.091 570.506 317.417 564.596 313.42 557.027C309.468 549.416 307.491 540.592 307.491 530.557C307.491 520.48 309.468 511.656 313.42 504.087C317.417 496.476 323.091 490.566 330.446 486.356C337.842 482.104 346.683 479.978 356.97 479.978C367.259 479.978 376.079 482.104 383.433 486.356C390.829 490.566 396.505 496.476 400.457 504.087C404.454 511.656 406.451 520.48 406.451 530.557C406.451 540.592 404.454 549.416 400.457 557.027C396.505 564.596 390.829 570.506 383.433 574.759C376.079 578.968 367.259 581.073 356.97 581.073ZM357.162 557.537C360.902 557.537 364.07 556.389 366.663 554.093C369.255 551.797 371.232 548.608 372.593 544.526C373.996 540.444 374.698 535.724 374.698 530.366C374.698 524.923 373.996 520.161 372.593 516.079C371.232 511.996 369.255 508.807 366.663 506.511C364.07 504.215 360.902 503.067 357.162 503.067C353.294 503.067 350.021 504.215 347.342 506.511C344.706 508.807 342.688 511.996 341.286 516.079C339.924 520.161 339.244 524.923 339.244 530.366C339.244 535.724 339.924 540.444 341.286 544.526C342.688 548.608 344.706 551.797 347.342 554.093C350.021 556.389 353.294 557.537 357.162 557.537ZM450.544 553.519L450.671 516.334H455.008L482.554 481.253H517.878L476.942 531.514H468.717L450.544 553.519ZM422.425 579.223V448.597H453.605V579.223H422.425ZM483.256 579.223L457.622 538.53L478.154 516.397L519.283 579.223H483.256ZM570.787 581.073C560.542 581.073 551.7 579.053 544.261 575.014C536.865 570.932 531.169 565.127 527.172 557.601C523.218 550.032 521.243 541.039 521.243 530.621C521.243 520.501 523.24 511.656 527.237 504.087C531.232 496.476 536.865 490.566 544.133 486.356C551.402 482.104 559.969 479.978 569.83 479.978C576.802 479.978 583.179 481.062 588.96 483.231C594.74 485.399 599.736 488.61 603.945 492.862C608.153 497.114 611.427 502.365 613.765 508.616C616.103 514.824 617.271 521.947 617.271 529.983V537.765H532.146V519.65H588.258C588.215 516.334 587.429 513.378 585.899 510.785C584.369 508.191 582.265 506.171 579.587 504.725C576.951 503.237 573.912 502.493 570.468 502.493C566.982 502.493 563.858 503.28 561.095 504.853C558.331 506.384 556.142 508.488 554.528 511.167C552.912 513.804 552.061 516.801 551.977 520.161V538.594C551.977 542.591 552.763 546.099 554.336 549.118C555.909 552.094 558.141 554.412 561.032 556.07C563.923 557.729 567.365 558.558 571.362 558.558C574.123 558.558 576.632 558.175 578.885 557.41C581.139 556.644 583.073 555.517 584.687 554.029C586.303 552.541 587.515 550.712 588.323 548.544L616.952 549.373C615.761 555.794 613.147 561.386 609.109 566.148C605.114 570.868 599.863 574.546 593.36 577.182C586.856 579.776 579.331 581.073 570.787 581.073ZM664.377 523.35V579.223H633.197V481.253H662.845V499.24H663.93C666.099 493.244 669.796 488.546 675.025 485.144C680.254 481.7 686.481 479.978 693.708 479.978C700.594 479.978 706.566 481.53 711.626 484.634C716.727 487.695 720.68 491.99 723.486 497.518C726.334 503.003 727.736 509.424 727.695 516.78V579.223H696.513V522.903C696.556 517.461 695.175 513.208 692.368 510.147C689.605 507.085 685.759 505.555 680.828 505.555C677.555 505.555 674.664 506.277 672.156 507.723C669.69 509.126 667.778 511.146 666.417 513.782C665.099 516.419 664.418 519.608 664.377 523.35Z" fill="#193CB8"/>
<g filter="url(#filter0_dii_2_24)">
<path d="M746.075 562.583L756.309 572.859C757.794 574.35 760.229 574.263 761.599 572.665C773.152 559.186 820.71 504.43 829.444 506.234C839.404 508.291 840.067 538.955 866.623 543.565C889.939 547.612 937.819 478.782 949.16 461.921C950.434 460.024 953.126 459.765 954.74 461.386L960.547 467.216C962.501 469.178 965.848 468.283 966.561 465.607L979.214 418.196C979.927 415.524 977.481 413.082 974.811 413.801L924.397 427.364C921.732 428.081 920.838 431.412 922.786 433.368L929.079 439.688C930.227 440.839 930.467 442.597 929.632 443.993C921.276 457.976 877.544 528.974 861.312 511.636C843.331 492.428 842.06 477.513 826.788 476.971C813.084 476.485 757.126 543.998 745.803 557.838C744.642 559.258 744.78 561.284 746.075 562.583Z" fill="#00C950"/>
<path d="M975.043 414.668C977.045 414.13 978.88 415.96 978.345 417.964L965.693 465.375C965.158 467.382 962.65 468.054 961.183 466.582L955.376 460.751C953.363 458.731 950.007 459.053 948.414 461.42C942.751 469.841 927.97 491.228 911.705 509.996C903.57 519.383 895.087 528.083 887.212 534.177C883.274 537.223 879.514 539.598 876.045 541.086C872.572 542.575 869.459 543.145 866.778 542.68C853.9 540.444 847.276 531.917 842.595 523.505C841.422 521.4 840.379 519.312 839.384 517.331C838.397 515.358 837.452 513.481 836.497 511.836C834.624 508.609 832.543 505.957 829.627 505.354C828.841 505.192 827.954 505.363 827.061 505.691C826.151 506.026 825.127 506.563 824.019 507.256C821.802 508.643 819.143 510.722 816.194 513.279C810.294 518.398 803.146 525.519 795.927 533.1C781.485 548.265 766.695 565.338 760.917 572.081C759.89 573.28 758.062 573.346 756.945 572.225L746.71 561.95C745.728 560.963 745.64 559.455 746.498 558.407C752.156 551.49 768.963 531.168 786.062 512.641C794.615 503.375 803.225 494.577 810.54 488.13C814.199 484.905 817.514 482.287 820.321 480.497C821.725 479.601 822.985 478.923 824.082 478.479C825.188 478.032 826.077 477.845 826.758 477.869C830.414 477.999 833.186 478.982 835.583 480.653C838.005 482.339 840.086 484.755 842.306 487.83C846.717 493.94 851.616 502.592 860.657 512.25C862.892 514.637 865.638 515.512 868.665 515.173C871.639 514.841 874.856 513.345 878.165 511.09C884.791 506.576 892.108 498.804 899.124 490.124C913.172 472.743 926.221 451.451 930.405 444.453C931.455 442.695 931.143 440.488 929.715 439.054L923.422 432.735C921.962 431.268 922.632 428.77 924.63 428.232L975.043 414.668Z" stroke="#14F56E" stroke-opacity="0.45"/>
</g>
<path d="M796.888 552.181C795.662 550.056 796.024 547.37 797.773 545.648L810.913 532.703C813.352 530.3 817.383 530.752 819.231 533.636L838.533 563.785C840.189 566.373 839.35 569.82 836.689 571.357L819.805 581.109C817.229 582.597 813.934 581.714 812.445 579.137L796.888 552.181Z" fill="#193CB8"/>
<path d="M789.1 495.161C790.32 497.274 789.968 499.943 788.242 501.667L775.176 514.726C772.741 517.16 768.679 516.716 766.828 513.814L746.83 482.492C745.178 479.904 746.019 476.46 748.678 474.925L765.569 465.17C768.146 463.682 771.441 464.565 772.928 467.142L789.1 495.161Z" fill="#193CB8"/>
<defs>
<filter id="filter0_dii_2_24" x="745.011" y="413.673" width="234.328" height="164.25" filterUnits="userSpaceOnUse" color-interpolation-filters="sRGB">
<feFlood flood-opacity="0" result="BackgroundImageFix"/>
<feColorMatrix in="SourceAlpha" type="matrix" values="0 0 0 0 0 0 0 0 0 0 0 0 0 0 0 0 0 0 127 0" result="hardAlpha"/>
<feOffset/>
<feComposite in2="hardAlpha" operator="out"/>
<feColorMatrix type="matrix" values="0 0 0 0 0.08511 0 0 0 0 0.931731 0 0 0 0 0.240324 0 0 0 1 0"/>
<feBlend mode="normal" in2="BackgroundImageFix" result="effect1_dropShadow_2_24"/>
<feBlend mode="normal" in="SourceGraphic" in2="effect1_dropShadow_2_24" result="shape"/>
<feColorMatrix in="SourceAlpha" type="matrix" values="0 0 0 0 0 0 0 0 0 0 0 0 0 0 0 0 0 0 127 0" result="hardAlpha"/>
<feOffset dy="4"/>
<feGaussianBlur stdDeviation="2"/>
<feComposite in2="hardAlpha" operator="arithmetic" k2="-1" k3="1"/>
<feColorMatrix type="matrix" values="0 0 0 0 0 0 0 0 0 0 0 0 0 0 0 0 0 0 0.25 0"/>
<feBlend mode="normal" in2="shape" result="effect2_innerShadow_2_24"/>
<feColorMatrix in="SourceAlpha" type="matrix" values="0 0 0 0 0 0 0 0 0 0 0 0 0 0 0 0 0 0 127 0" result="hardAlpha"/>
<feOffset dy="3"/>
<feGaussianBlur stdDeviation="3"/>
<feComposite in2="hardAlpha" operator="arithmetic" k2="-1" k3="1"/>
<feColorMatrix type="matrix" values="0 0 0 0 0 0 0 0 0 0 0 0 0 0 0 0 0 0 0.33 0"/>
<feBlend mode="normal" in2="effect2_innerShadow_2_24" result="effect3_innerShadow_2_24"/>
</filter>
</defs>
</svg>
