<svg width="1080" height="1080" viewBox="0 0 1080 1080" fill="none" xmlns="http://www.w3.org/2000/svg">
<rect width="1080" height="1080" fill="white"/>
<path d="M873.082 551.383V458.85C873.082 457.858 873.887 457.087 874.878 457.087H900.016C901.007 457.087 901.812 457.86 901.812 458.852V551.383C901.812 561.73 913.463 557.957 918.868 555.65C920.112 555.119 921.563 556.021 921.563 557.374V575.257C921.563 576.019 921.084 576.696 920.355 576.919C912.862 579.217 873.082 589.617 873.082 551.383Z" fill="#193CB8" stroke="#193CB8"/>
<path d="M147.666 581.073C137.421 581.073 128.579 579.053 121.14 575.014C113.744 570.932 108.047 565.127 104.051 557.601C100.098 550.032 98.1213 541.039 98.1213 530.621C98.1213 520.501 100.119 511.656 104.115 504.087C108.111 496.476 113.744 490.566 121.013 486.356C128.282 482.104 136.847 479.978 146.71 479.978C153.681 479.978 160.057 481.062 165.839 483.231C171.62 485.399 176.615 488.61 180.823 492.862C185.032 497.114 188.305 502.365 190.643 508.616C192.981 514.824 194.15 521.947 194.15 529.983V537.765H109.025V519.65H165.137C165.095 516.334 164.308 513.378 162.778 510.785C161.248 508.191 159.143 506.171 156.465 504.725C153.83 503.237 150.79 502.493 147.347 502.493C143.861 502.493 140.737 503.28 137.974 504.853C135.211 506.384 133.021 508.488 131.406 511.167C129.791 513.804 128.941 516.801 128.856 520.161V538.594C128.856 542.591 129.642 546.099 131.215 549.118C132.788 552.094 135.019 554.412 137.91 556.07C140.801 557.729 144.244 558.558 148.24 558.558C151.003 558.558 153.511 558.175 155.764 557.41C158.017 556.644 159.951 555.517 161.566 554.029C163.182 552.541 164.393 550.712 165.201 548.544L193.831 549.373C192.641 555.794 190.026 561.386 185.988 566.148C181.992 570.868 176.742 574.546 170.238 577.182C163.734 579.776 156.21 581.073 147.666 581.073ZM302.452 481.253L268.849 579.223H233.141L199.602 481.253H232.44L250.485 548.735H251.505L269.614 481.253H302.452ZM356.97 581.073C346.683 581.073 337.842 578.968 330.446 574.759C323.091 570.506 317.417 564.596 313.42 557.027C309.468 549.416 307.491 540.592 307.491 530.557C307.491 520.48 309.468 511.656 313.42 504.087C317.417 496.476 323.091 490.566 330.446 486.356C337.842 482.104 346.683 479.978 356.97 479.978C367.259 479.978 376.079 482.104 383.433 486.356C390.829 490.566 396.505 496.476 400.457 504.087C404.454 511.656 406.451 520.48 406.451 530.557C406.451 540.592 404.454 549.416 400.457 557.027C396.505 564.596 390.829 570.506 383.433 574.759C376.079 578.968 367.259 581.073 356.97 581.073ZM357.162 557.537C360.902 557.537 364.07 556.389 366.663 554.093C369.255 551.797 371.232 548.608 372.593 544.526C373.996 540.444 374.698 535.724 374.698 530.366C374.698 524.923 373.996 520.161 372.593 516.079C371.232 511.996 369.255 508.807 366.663 506.511C364.07 504.215 360.902 503.067 357.162 503.067C353.294 503.067 350.021 504.215 347.342 506.511C344.706 508.807 342.688 511.996 341.286 516.079C339.924 520.161 339.244 524.923 339.244 530.366C339.244 535.724 339.924 540.444 341.286 544.526C342.688 548.608 344.706 551.797 347.342 554.093C350.021 556.389 353.294 557.537 357.162 557.537ZM450.544 553.519L450.671 516.334H455.008L482.554 481.253H517.878L476.942 531.514H468.717L450.544 553.519ZM422.425 579.223V448.597H453.605V579.223H422.425ZM483.256 579.223L457.622 538.53L478.154 516.397L519.283 579.223H483.256ZM570.787 581.073C560.542 581.073 551.7 579.053 544.261 575.014C536.865 570.932 531.169 565.127 527.172 557.601C523.218 550.032 521.243 541.039 521.243 530.621C521.243 520.501 523.24 511.656 527.237 504.087C531.232 496.476 536.865 490.566 544.133 486.356C551.402 482.104 559.969 479.978 569.83 479.978C576.802 479.978 583.179 481.062 588.96 483.231C594.74 485.399 599.736 488.61 603.945 492.862C608.153 497.114 611.427 502.365 613.765 508.616C616.103 514.824 617.271 521.947 617.271 529.983V537.765H532.146V519.65H588.258C588.215 516.334 587.429 513.378 585.899 510.785C584.369 508.191 582.265 506.171 579.587 504.725C576.951 503.237 573.912 502.493 570.468 502.493C566.982 502.493 563.858 503.28 561.095 504.853C558.331 506.384 556.142 508.488 554.528 511.167C552.912 513.804 552.061 516.801 551.977 520.161V538.594C551.977 542.591 552.763 546.099 554.336 549.118C555.909 552.094 558.141 554.412 561.032 556.07C563.923 557.729 567.365 558.558 571.362 558.558C574.123 558.558 576.632 558.175 578.885 557.41C581.139 556.644 583.073 555.517 584.687 554.029C586.303 552.541 587.515 550.712 588.323 548.544L616.952 549.373C615.761 555.794 613.147 561.386 609.109 566.148C605.114 570.868 599.863 574.546 593.36 577.182C586.856 579.776 579.331 581.073 570.787 581.073ZM664.377 523.35V579.223H633.197V481.253H662.845V499.24H663.93C666.099 493.244 669.796 488.546 675.025 485.144C680.254 481.7 686.481 479.978 693.708 479.978C700.594 479.978 706.566 481.53 711.626 484.634C716.727 487.695 720.68 491.99 723.486 497.518C726.334 503.003 727.736 509.424 727.695 516.78V579.223H696.513V522.903C696.556 517.461 695.175 513.208 692.368 510.147C689.605 507.085 685.759 505.555 680.828 505.555C677.555 505.555 674.664 506.277 672.156 507.723C669.69 509.126 667.778 511.146 666.417 513.782C665.099 516.419 664.418 519.608 664.377 523.35Z" fill="#193CB8"/>
<g filter="url(#filter0_dii_2_24)">
<path d="M746.075 562.583L756.309 572.859C757.794 574.35 760.229 574.263 761.599 572.665C773.152 559.186 820.71 504.43 829.444 506.234C839.404 508.291 840.067 538.955 866.623 543.565C889.939 547.612 937.819 478.782 949.16 461.921C950.434 460.024 953.126 459.765 954.74 461.386L960.547 467.216C962.501 469.178 965.848 468.283 966.561 465.607L979.214 418.196C979.927 415.524 977.481 413.082 974.811 413.801L924.397 427.364C921.732 428.081 920.838 431.412 922.786 433.368L929.079 439.688C930.227 440.839 930.467 442.597 929.632 443.993C921.276 457.976 877.544 528.974 861.312 511.636C843.331 492.428 842.06 477.513 826.788 476.971C813.084 476.485 757.126 543.998 745.803 557.838C744.642 559.258 744.78 561.284 746.075 562.583Z" fill="#00C950"/>
<path d="M975.043 414.668C977.045 414.13 978.88 415.96 978.345 417.964L965.693 465.375C965.158 467.382 962.65 468.054 961.183 466.582L955.376 460.751C953.363 458.731 950.007 459.053 948.414 461.42C942.751 469.841 927.97 491.228 911.705 509.996C903.57 519.383 895.087 528.083 887.212 534.177C883.274 537.223 879.514 539.598 876.045 541.086C872.572 542.575 869.459 543.145 866.778 542.68C853.9 540.444 847.276 531.917 842.595 523.505C841.422 521.4 840.379 519.312 839.384 517.331C838.397 515.358 837.452 513.481 836.497 511.836C834.624 508.609 832.543 505.957 829.627 505.354C828.841 505.192 827.954 505.363 827.061 505.691C826.151 506.026 825.127 506.563 824.019 507.256C821.802 508.643 819.143 510.722 816.194 513.279C810.294 518.398 803.146 525.519 795.927 533.1C781.485 548.265 766.695 565.338 760.917 572.081C759.89 573.28 758.062 573.346 756.945 572.225L746.71 561.95C745.728 560.963 745.64 559.455 746.498 558.407C752.156 551.49 768.963 531.168 786.062 512.641C794.615 503.375 803.225 494.577 810.54 488.13C814.199 484.905 817.514 482.287 820.321 480.497C821.725 479.601 822.985 478.923 824.082 478.479C825.188 478.032 826.077 477.845 826.758 477.869C830.414 477.999 833.186 478.982 835.583 480.653C838.005 482.339 840.086 484.755 842.306 487.83C846.717 493.94 851.616 502.592 860.657 512.25C862.892 514.637 865.638 515.512 868.665 515.173C871.639 514.841 874.856 513.345 878.165 511.09C884.791 506.576 892.108 498.804 899.124 490.124C913.172 472.743 926.221 451.451 930.405 444.453C931.455 442.695 931.143 440.488 929.715 439.054L923.422 432.735C921.962 431.268 922.632 428.77 924.63 428.232L975.043 414.668Z" stroke="#14F56E" stroke-opacity="0.45"/>
</g>
<path d="M796.888 552.181C795.662 550.056 796.024 547.37 797.773 545.648L810.913 532.703C813.352 530.3 817.383 530.752 819.231 533.636L838.533 563.785C840.189 566.373 839.35 569.82 836.689 571.357L819.805 581.109C817.229 582.597 813.934 581.714 812.445 579.137L796.888 552.181Z" fill="#193CB8"/>
<path d="M789.1 495.161C790.32 497.274 789.968 499.943 788.242 501.667L775.176 514.726C772.741 517.16 768.679 516.716 766.828 513.814L746.83 482.492C745.178 479.904 746.019 476.46 748.678 474.925L765.569 465.17C768.146 463.682 771.441 464.565 772.928 467.142L789.1 495.161Z" fill="#193CB8"/>
<path d="M224.11 653V616.636H229.597V648.277H246.074V653H224.11ZM252.333 653V616.636H275.131V621.359H257.819V632.439H273.942V637.144H257.819V648.277H275.344V653H252.333ZM285.532 653H279.708L292.794 616.636H299.132L312.218 653H306.395L296.114 623.241H295.83L285.532 653ZM286.508 638.76H305.4V643.376H286.508V638.76ZM317.47 653V616.636H330.431C333.249 616.636 335.586 617.122 337.445 618.092C339.315 619.063 340.712 620.406 341.635 622.123C342.558 623.827 343.02 625.798 343.02 628.036C343.02 630.261 342.552 632.22 341.617 633.913C340.694 635.594 339.297 636.902 337.427 637.837C335.569 638.772 333.231 639.239 330.414 639.239H320.595V634.516H329.916C331.692 634.516 333.136 634.262 334.249 633.753C335.373 633.244 336.196 632.504 336.717 631.533C337.238 630.563 337.498 629.397 337.498 628.036C337.498 626.662 337.232 625.473 336.699 624.467C336.178 623.46 335.356 622.691 334.231 622.158C333.118 621.614 331.656 621.342 329.845 621.342H322.956V653H317.47ZM335.421 636.594L344.405 653H338.155L329.348 636.594H335.421ZM379.046 616.636V653H374.004L355.52 626.331H355.183V653H349.696V616.636H354.774L373.276 643.341H373.613V616.636H379.046ZM403.354 653.337C402.383 653.337 401.549 652.994 400.85 652.308C400.152 651.609 399.803 650.769 399.803 649.786C399.803 648.816 400.152 647.987 400.85 647.3C401.549 646.602 402.383 646.253 403.354 646.253C404.325 646.253 405.159 646.602 405.857 647.3C406.556 647.987 406.905 648.816 406.905 649.786C406.905 650.437 406.739 651.035 406.408 651.58C406.088 652.112 405.662 652.538 405.129 652.858C404.597 653.178 404.005 653.337 403.354 653.337ZM427.089 653V616.636H432.575V648.277H449.053V653H427.089ZM455.311 653V616.636H478.11V621.359H460.798V632.439H476.92V637.144H460.798V648.277H478.323V653H455.311ZM488.51 653H482.686L495.772 616.636H502.111L515.197 653H509.373L499.093 623.241H498.808L488.51 653ZM489.487 638.76H508.379V643.376H489.487V638.76ZM532.22 653H520.448V616.636H532.593C536.156 616.636 539.216 617.364 541.773 618.82C544.33 620.264 546.289 622.342 547.65 625.053C549.023 627.751 549.71 630.989 549.71 634.765C549.71 638.553 549.017 641.808 547.632 644.531C546.259 647.253 544.27 649.348 541.666 650.816C539.062 652.272 535.913 653 532.22 653ZM525.935 648.206H531.918C534.688 648.206 536.991 647.685 538.825 646.643C540.66 645.59 542.033 644.069 542.945 642.08C543.856 640.08 544.312 637.641 544.312 634.765C544.312 631.912 543.856 629.491 542.945 627.503C542.045 625.514 540.701 624.005 538.914 622.975C537.127 621.945 534.907 621.43 532.256 621.43H525.935V648.206ZM572.836 653.337C571.866 653.337 571.031 652.994 570.333 652.308C569.634 651.609 569.285 650.769 569.285 649.786C569.285 648.816 569.634 647.987 570.333 647.3C571.031 646.602 571.866 646.253 572.836 646.253C573.807 646.253 574.641 646.602 575.34 647.3C576.038 647.987 576.387 648.816 576.387 649.786C576.387 650.437 576.222 651.035 575.89 651.58C575.571 652.112 575.145 652.538 574.612 652.858C574.079 653.178 573.487 653.337 572.836 653.337ZM616.404 626.189C616.215 624.508 615.434 623.206 614.061 622.283C612.687 621.348 610.959 620.88 608.876 620.88C607.384 620.88 606.094 621.117 605.005 621.59C603.916 622.052 603.07 622.691 602.466 623.508C601.874 624.313 601.578 625.23 601.578 626.26C601.578 627.124 601.78 627.87 602.182 628.497C602.596 629.125 603.135 629.651 603.798 630.077C604.472 630.492 605.195 630.841 605.964 631.125C606.733 631.397 607.473 631.622 608.183 631.8L611.735 632.723C612.895 633.007 614.084 633.392 615.303 633.877C616.523 634.362 617.653 635.002 618.695 635.795C619.736 636.588 620.577 637.57 621.216 638.742C621.867 639.914 622.193 641.317 622.193 642.95C622.193 645.01 621.66 646.839 620.595 648.437C619.541 650.035 618.008 651.295 615.996 652.219C613.995 653.142 611.575 653.604 608.734 653.604C606.011 653.604 603.656 653.172 601.667 652.308C599.678 651.443 598.122 650.218 596.997 648.632C595.873 647.034 595.251 645.14 595.133 642.95H600.637C600.744 644.264 601.17 645.359 601.916 646.235C602.673 647.099 603.638 647.744 604.81 648.17C605.994 648.585 607.29 648.792 608.698 648.792C610.249 648.792 611.628 648.549 612.835 648.064C614.055 647.567 615.013 646.88 615.712 646.004C616.41 645.116 616.759 644.081 616.759 642.897C616.759 641.82 616.452 640.938 615.836 640.251C615.232 639.565 614.41 638.997 613.368 638.547C612.338 638.097 611.172 637.701 609.87 637.357L605.573 636.185C602.661 635.392 600.353 634.226 598.649 632.688C596.956 631.149 596.11 629.113 596.11 626.58C596.11 624.484 596.678 622.656 597.814 621.093C598.95 619.531 600.489 618.317 602.431 617.453C604.372 616.577 606.562 616.139 609 616.139C611.462 616.139 613.634 616.571 615.517 617.435C617.41 618.299 618.902 619.489 619.991 621.004C621.08 622.508 621.648 624.236 621.695 626.189H616.404ZM652.133 616.636H657.637V640.553C657.637 643.098 657.04 645.353 655.844 647.318C654.649 649.271 652.968 650.81 650.801 651.935C648.635 653.047 646.096 653.604 643.184 653.604C640.284 653.604 637.751 653.047 635.585 651.935C633.419 650.81 631.738 649.271 630.542 647.318C629.347 645.353 628.749 643.098 628.749 640.553V616.636H634.235V640.109C634.235 641.755 634.596 643.217 635.319 644.495C636.052 645.773 637.088 646.78 638.426 647.513C639.763 648.236 641.35 648.597 643.184 648.597C645.031 648.597 646.623 648.236 647.961 647.513C649.31 646.78 650.34 645.773 651.05 644.495C651.772 643.217 652.133 641.755 652.133 640.109V616.636ZM695.817 628.462H690.277C690.064 627.278 689.667 626.236 689.087 625.337C688.507 624.437 687.797 623.674 686.956 623.046C686.116 622.419 685.175 621.945 684.133 621.626C683.104 621.306 682.009 621.146 680.849 621.146C678.753 621.146 676.877 621.673 675.22 622.727C673.575 623.78 672.273 625.325 671.314 627.361C670.367 629.397 669.893 631.883 669.893 634.818C669.893 637.777 670.367 640.275 671.314 642.311C672.273 644.347 673.581 645.886 675.238 646.928C676.895 647.969 678.759 648.49 680.831 648.49C681.979 648.49 683.068 648.336 684.098 648.028C685.14 647.709 686.081 647.241 686.921 646.626C687.761 646.01 688.472 645.259 689.052 644.371C689.644 643.471 690.052 642.441 690.277 641.281L695.817 641.299C695.521 643.086 694.947 644.732 694.094 646.235C693.254 647.727 692.171 649.017 690.845 650.106C689.531 651.183 688.028 652.018 686.335 652.609C684.642 653.201 682.796 653.497 680.795 653.497C677.647 653.497 674.841 652.751 672.379 651.26C669.917 649.757 667.976 647.608 666.555 644.815C665.147 642.021 664.442 638.689 664.442 634.818C664.442 630.936 665.153 627.603 666.573 624.822C667.993 622.028 669.935 619.886 672.397 618.394C674.859 616.891 677.658 616.139 680.795 616.139C682.725 616.139 684.524 616.417 686.193 616.974C687.874 617.518 689.383 618.323 690.721 619.388C692.058 620.442 693.165 621.732 694.041 623.259C694.917 624.774 695.509 626.509 695.817 628.462ZM732.584 628.462H727.044C726.831 627.278 726.435 626.236 725.855 625.337C725.275 624.437 724.565 623.674 723.724 623.046C722.884 622.419 721.943 621.945 720.901 621.626C719.871 621.306 718.776 621.146 717.616 621.146C715.521 621.146 713.645 621.673 711.988 622.727C710.342 623.78 709.04 625.325 708.081 627.361C707.134 629.397 706.661 631.883 706.661 634.818C706.661 637.777 707.134 640.275 708.081 642.311C709.04 644.347 710.348 645.886 712.005 646.928C713.663 647.969 715.527 648.49 717.598 648.49C718.747 648.49 719.836 648.336 720.865 648.028C721.907 647.709 722.848 647.241 723.689 646.626C724.529 646.01 725.239 645.259 725.819 644.371C726.411 643.471 726.819 642.441 727.044 641.281L732.584 641.299C732.288 643.086 731.714 644.732 730.862 646.235C730.021 647.727 728.938 649.017 727.613 650.106C726.299 651.183 724.795 652.018 723.103 652.609C721.41 653.201 719.563 653.497 717.563 653.497C714.414 653.497 711.609 652.751 709.147 651.26C706.685 649.757 704.743 647.608 703.323 644.815C701.914 642.021 701.21 638.689 701.21 634.818C701.21 630.936 701.92 627.603 703.341 624.822C704.761 622.028 706.702 619.886 709.164 618.394C711.627 616.891 714.426 616.139 717.563 616.139C719.492 616.139 721.292 616.417 722.961 616.974C724.641 617.518 726.151 618.323 727.488 619.388C728.826 620.442 729.933 621.732 730.809 623.259C731.685 624.774 732.276 626.509 732.584 628.462ZM739.149 653V616.636H761.948V621.359H744.636V632.439H760.758V637.144H744.636V648.277H762.161V653H739.149ZM769.276 653V616.636H792.075V621.359H774.763V632.439H790.885V637.144H774.763V648.277H792.288V653H769.276ZM811.175 653H799.403V616.636H811.548C815.111 616.636 818.171 617.364 820.728 618.82C823.285 620.264 825.244 622.342 826.605 625.053C827.978 627.751 828.665 630.989 828.665 634.765C828.665 638.553 827.972 641.808 826.587 644.531C825.214 647.253 823.225 649.348 820.621 650.816C818.017 652.272 814.868 653 811.175 653ZM804.89 648.206H810.873C813.643 648.206 815.946 647.685 817.78 646.643C819.615 645.59 820.988 644.069 821.9 642.08C822.811 640.08 823.267 637.641 823.267 634.765C823.267 631.912 822.811 629.491 821.9 627.503C821 625.514 819.657 624.005 817.869 622.975C816.082 621.945 813.862 621.43 811.211 621.43H804.89V648.206ZM851.791 653.337C850.821 653.337 849.986 652.994 849.288 652.308C848.589 651.609 848.24 650.769 848.24 649.786C848.24 648.816 848.589 647.987 849.288 647.3C849.986 646.602 850.821 646.253 851.791 646.253C852.762 646.253 853.597 646.602 854.295 647.3C854.993 647.987 855.343 648.816 855.343 649.786C855.343 650.437 855.177 651.035 854.845 651.58C854.526 652.112 854.1 652.538 853.567 652.858C853.034 653.178 852.442 653.337 851.791 653.337Z" fill="black"/>
<defs>
<filter id="filter0_dii_2_24" x="745.011" y="413.673" width="234.328" height="164.25" filterUnits="userSpaceOnUse" color-interpolation-filters="sRGB">
<feFlood flood-opacity="0" result="BackgroundImageFix"/>
<feColorMatrix in="SourceAlpha" type="matrix" values="0 0 0 0 0 0 0 0 0 0 0 0 0 0 0 0 0 0 127 0" result="hardAlpha"/>
<feOffset/>
<feComposite in2="hardAlpha" operator="out"/>
<feColorMatrix type="matrix" values="0 0 0 0 0.08511 0 0 0 0 0.931731 0 0 0 0 0.240324 0 0 0 1 0"/>
<feBlend mode="normal" in2="BackgroundImageFix" result="effect1_dropShadow_2_24"/>
<feBlend mode="normal" in="SourceGraphic" in2="effect1_dropShadow_2_24" result="shape"/>
<feColorMatrix in="SourceAlpha" type="matrix" values="0 0 0 0 0 0 0 0 0 0 0 0 0 0 0 0 0 0 127 0" result="hardAlpha"/>
<feOffset dy="4"/>
<feGaussianBlur stdDeviation="2"/>
<feComposite in2="hardAlpha" operator="arithmetic" k2="-1" k3="1"/>
<feColorMatrix type="matrix" values="0 0 0 0 0 0 0 0 0 0 0 0 0 0 0 0 0 0 0.25 0"/>
<feBlend mode="normal" in2="shape" result="effect2_innerShadow_2_24"/>
<feColorMatrix in="SourceAlpha" type="matrix" values="0 0 0 0 0 0 0 0 0 0 0 0 0 0 0 0 0 0 127 0" result="hardAlpha"/>
<feOffset dy="3"/>
<feGaussianBlur stdDeviation="3"/>
<feComposite in2="hardAlpha" operator="arithmetic" k2="-1" k3="1"/>
<feColorMatrix type="matrix" values="0 0 0 0 0 0 0 0 0 0 0 0 0 0 0 0 0 0 0.33 0"/>
<feBlend mode="normal" in2="effect2_innerShadow_2_24" result="effect3_innerShadow_2_24"/>
</filter>
</defs>
</svg>
